<svg width="618" height="174" viewBox="0 0 618 174" fill="none" xmlns="http://www.w3.org/2000/svg">
<path d="M64.8073 81.125C64.8073 81.5781 64.7656 82.0261 64.6771 82.474C64.5885 82.9167 64.4583 83.349 64.2812 83.7708C64.1094 84.1875 63.8958 84.5886 63.6458 84.9636C63.3906 85.3438 63.1042 85.6927 62.7864 86.0156C62.4635 86.3333 62.1146 86.6198 61.7344 86.875C61.3594 87.125 60.9583 87.3386 60.5417 87.5104C60.1198 87.6875 59.6875 87.8177 59.2448 87.9063C58.7969 87.9948 58.3489 88.0417 57.8958 88.0417C57.4427 88.0417 56.9896 87.9948 56.5469 87.9063C56.0989 87.8177 55.6667 87.6875 55.25 87.5104C54.8281 87.3386 54.4323 87.125 54.0521 86.875C53.6771 86.6198 53.3281 86.3333 53.0052 86.0156C52.6823 85.6927 52.3958 85.3438 52.1458 84.9636C51.8906 84.5886 51.6823 84.1875 51.5052 83.7708C51.3333 83.349 51.2031 82.9167 51.1146 82.474C51.026 82.0261 50.9792 81.5781 50.9792 81.125C50.9792 80.6719 51.026 80.2188 51.1146 79.7761C51.2031 79.3281 51.3333 78.8958 51.5052 78.4792C51.6823 78.0573 51.8906 77.6615 52.1458 77.2813C52.3958 76.9063 52.6823 76.5573 53.0052 76.2344C53.3281 75.9115 53.6771 75.625 54.0521 75.375C54.4323 75.125 54.8281 74.9115 55.25 74.7344C55.6667 74.5625 56.0989 74.4323 56.5469 74.3438C56.9896 74.2552 57.4427 74.2083 57.8958 74.2083C58.3489 74.2083 58.7969 74.2552 59.2448 74.3438C59.6875 74.4323 60.1198 74.5625 60.5417 74.7344C60.9583 74.9115 61.3594 75.125 61.7344 75.375C62.1146 75.625 62.4635 75.9115 62.7864 76.2344C63.1042 76.5573 63.3906 76.9063 63.6458 77.2813C63.8958 77.6615 64.1094 78.0573 64.2812 78.4792C64.4583 78.8958 64.5885 79.3281 64.6771 79.7761C64.7656 80.2188 64.8073 80.6719 64.8073 81.125Z" fill="#7AD4C3"/>
<mask id="mask0_1_2" style="mask-type:luminance" maskUnits="userSpaceOnUse" x="33" y="67" width="157" height="64">
<path d="M33 67.6667H189.948V130.333H33V67.6667Z" fill="white"/>
</mask>
<g mask="url(#mask0_1_2)">
<path d="M184.818 80.1198C182.88 83.1302 176.073 94.5052 164.802 94.5052C146.339 94.5052 134.13 68.8854 111.276 68.8854C88.4219 68.8854 76.2865 94.5052 57.8229 94.5052C46.5521 94.5052 39.776 83.1302 37.8073 80.1198C35.8698 77.1146 32.2396 77.3229 34.2448 83.6458C36.9062 92.151 47.625 101.214 47.625 106.089C47.625 110.964 40.2969 120.953 42.9219 123.583C45.5521 126.208 52.8802 113 56.3021 112.797C60.6927 112.516 62.1458 125.036 65.9531 124.792C69.7552 124.552 65.0521 113.901 68.2344 106.984C70.8281 101.318 86.625 84.7917 98.4531 90.875C110.276 96.9583 84.8281 123.755 90.6042 129.286C95.4792 133.953 104.193 114.385 111.38 114.385C118.573 114.385 127.286 133.953 132.161 129.286C137.938 123.719 112.49 96.9271 124.313 90.875C136.135 84.8229 151.938 101.318 154.531 106.984C157.714 113.901 152.974 124.552 156.813 124.792C160.615 125.036 162.068 112.516 166.458 112.797C169.849 113 177.177 126.208 179.839 123.583C182.469 120.953 175.135 110.964 175.135 106.089C175.135 101.214 185.823 92.151 188.516 83.6458C190.385 77.3229 186.792 77.1458 184.818 80.1198Z" fill="#7AD4C3"/>
</g>
<path d="M171.646 81.125C171.646 81.5781 171.599 82.0261 171.51 82.474C171.422 82.9167 171.292 83.349 171.12 83.7708C170.943 84.1875 170.734 84.5886 170.479 84.9636C170.229 85.3438 169.943 85.6927 169.62 86.0156C169.297 86.3333 168.948 86.6198 168.573 86.875C168.193 87.125 167.797 87.3386 167.375 87.5104C166.958 87.6875 166.526 87.8177 166.078 87.9063C165.635 87.9948 165.182 88.0417 164.729 88.0417C164.276 88.0417 163.828 87.9948 163.38 87.9063C162.937 87.8177 162.505 87.6875 162.083 87.5104C161.667 87.3386 161.266 87.125 160.891 86.875C160.51 86.6198 160.161 86.3333 159.839 86.0156C159.521 85.6927 159.234 85.3438 158.979 84.9636C158.729 84.5886 158.516 84.1875 158.344 83.7708C158.167 83.349 158.036 82.9167 157.948 82.474C157.859 82.0261 157.818 81.5781 157.818 81.125C157.818 80.6719 157.859 80.2188 157.948 79.7761C158.036 79.3281 158.167 78.8958 158.344 78.4792C158.516 78.0573 158.729 77.6615 158.979 77.2813C159.234 76.9063 159.521 76.5573 159.839 76.2344C160.161 75.9115 160.51 75.625 160.891 75.375C161.266 75.125 161.667 74.9115 162.083 74.7344C162.505 74.5625 162.937 74.4323 163.38 74.3438C163.828 74.2552 164.276 74.2083 164.729 74.2083C165.182 74.2083 165.635 74.2552 166.078 74.3438C166.526 74.4323 166.958 74.5625 167.375 74.7344C167.797 74.9115 168.193 75.125 168.573 75.375C168.948 75.625 169.297 75.9115 169.62 76.2344C169.943 76.5573 170.229 76.9063 170.479 77.2813C170.734 77.6615 170.943 78.0573 171.12 78.4792C171.292 78.8958 171.422 79.3281 171.51 79.7761C171.599 80.2188 171.646 80.6719 171.646 81.125Z" fill="#7AD4C3"/>
<mask id="mask1_1_2" style="mask-type:luminance" maskUnits="userSpaceOnUse" x="99" y="39" width="25" height="24">
<path d="M99.6667 39.4948H123.667V62.3333H99.6667V39.4948Z" fill="white"/>
</mask>
<g mask="url(#mask1_1_2)">
<path d="M122.344 50.5625C122.344 51.2865 122.271 52 122.13 52.7135C121.99 53.4219 121.781 54.1094 121.5 54.7813C121.224 55.4479 120.885 56.0833 120.484 56.6875C120.083 57.2917 119.625 57.849 119.109 58.3594C118.599 58.8698 118.042 59.3281 117.438 59.7292C116.839 60.1354 116.203 60.474 115.531 60.75C114.865 61.026 114.177 61.2344 113.464 61.3802C112.755 61.5208 112.036 61.5885 111.313 61.5885C110.589 61.5885 109.87 61.5208 109.161 61.3802C108.453 61.2344 107.76 61.026 107.094 60.75C106.422 60.474 105.786 60.1354 105.188 59.7292C104.583 59.3281 104.026 58.8698 103.516 58.3594C103 57.849 102.547 57.2917 102.141 56.6875C101.74 56.0833 101.401 55.4479 101.125 54.7813C100.844 54.1094 100.635 53.4219 100.495 52.7135C100.354 52 100.281 51.2865 100.281 50.5625C100.281 49.8385 100.354 49.1198 100.495 48.4063C100.635 47.6979 100.844 47.0104 101.125 46.3385C101.401 45.6719 101.74 45.0365 102.141 44.4323C102.547 43.8281 103 43.2708 103.516 42.7604C104.026 42.25 104.583 41.7917 105.188 41.3906C105.786 40.9896 106.422 40.6458 107.094 40.3698C107.76 40.0937 108.453 39.8854 109.161 39.7448C109.87 39.599 110.589 39.5312 111.313 39.5312C112.036 39.5312 112.755 39.599 113.464 39.7448C114.177 39.8854 114.865 40.0937 115.531 40.3698C116.203 40.6458 116.839 40.9896 117.438 41.3906C118.042 41.7917 118.599 42.25 119.109 42.7604C119.625 43.2708 120.083 43.8281 120.484 44.4323C120.885 45.0365 121.224 45.6719 121.5 46.3385C121.781 47.0104 121.99 47.6979 122.13 48.4063C122.271 49.1198 122.344 49.8385 122.344 50.5625Z" fill="#7AD4C3"/>
</g>
<path d="M244.807 119.205C239.891 119.205 235.354 118.117 231.203 115.935C227.047 113.757 223.729 110.622 221.245 106.539C218.755 102.445 217.516 97.6377 217.516 92.1221C217.516 86.596 218.755 81.7887 221.245 77.7054C223.729 73.6117 227.047 70.471 231.203 68.2887C235.354 66.1117 239.891 65.0179 244.807 65.0179C248.417 65.0179 251.537 65.4867 254.162 66.4137C256.787 67.3304 259.224 68.5075 261.474 69.9346C262.833 70.8252 263.516 72.0179 263.516 73.5179C263.516 74.5335 263.12 75.471 262.328 76.3304C261.547 77.1794 260.646 77.6012 259.62 77.6012C258.87 77.6012 258.12 77.3929 257.37 76.9762C255.12 75.8252 253.193 74.9919 251.599 74.4762C250 73.9658 248.005 73.7054 245.62 73.7054C239.755 73.7054 235.151 75.3929 231.807 78.7679C228.474 82.1429 226.807 86.596 226.807 92.1221C226.807 97.6377 228.474 102.08 231.807 105.455C235.151 108.83 239.755 110.518 245.62 110.518C248.005 110.518 250 110.263 251.599 109.747C253.193 109.237 255.12 108.403 257.37 107.247C258.12 106.846 258.87 106.643 259.62 106.643C260.646 106.643 261.547 107.07 262.328 107.914C263.12 108.763 263.516 109.7 263.516 110.726C263.516 112.226 262.833 113.424 261.474 114.31C259.224 115.742 256.787 116.914 254.162 117.83C251.537 118.747 248.417 119.205 244.807 119.205Z" fill="#001649"/>
<path d="M302.969 119.205C297.719 119.205 293.115 118.08 289.156 115.83C285.208 113.58 282.162 110.393 280.011 106.268C277.87 102.143 276.802 97.4294 276.802 92.1221C276.802 86.8044 277.87 82.0804 280.011 77.9554C282.162 73.8304 285.208 70.6429 289.156 68.3929C293.115 66.1429 297.719 65.0179 302.969 65.0179C308.146 65.0179 312.708 66.1429 316.656 68.3929C320.615 70.6429 323.682 73.8304 325.865 77.9554C328.042 82.0804 329.136 86.8044 329.136 92.1221C329.136 97.4294 328.042 102.143 325.865 106.268C323.682 110.393 320.615 113.58 316.656 115.83C312.708 118.08 308.146 119.205 302.969 119.205ZM302.969 110.726C305.761 110.726 308.432 110.08 310.99 108.789C313.542 107.487 315.656 105.435 317.323 102.643C318.99 99.8512 319.823 96.3096 319.823 92.0179C319.823 87.7992 318.99 84.2887 317.323 81.4971C315.656 78.695 313.542 76.6637 310.99 75.4137C308.432 74.1533 305.761 73.5179 302.969 73.5179C300.104 73.5179 297.396 74.1533 294.844 75.4137C292.287 76.6637 290.188 78.695 288.552 81.4971C286.912 84.2887 286.094 87.7992 286.094 92.0179C286.094 96.3096 286.912 99.8512 288.552 102.643C290.188 105.435 292.287 107.487 294.844 108.789C297.396 110.08 300.104 110.726 302.969 110.726Z" fill="#001649"/>
<path d="M351.505 118.705C350.213 118.705 349.12 118.257 348.234 117.372C347.359 116.487 346.922 115.393 346.922 114.101V70.2471C346.922 68.945 347.359 67.8304 348.234 66.9137C349.12 65.9971 350.213 65.5387 351.505 65.5387C352.807 65.5387 353.922 65.9971 354.838 66.9137C355.755 67.8304 356.213 68.945 356.213 70.2471V74.6429C360.989 68.2262 366.343 65.0179 372.276 65.0179H372.776C374.067 65.0179 375.135 65.4658 375.984 66.3512C376.843 67.2419 377.276 68.3304 377.276 69.6221C377.276 70.9137 376.828 71.971 375.942 72.7887C375.052 73.6117 373.927 74.0179 372.567 74.0179H372.067C368.786 74.0179 365.786 74.8252 363.067 76.4346C360.343 78.0335 358.057 80.2262 356.213 83.0179V114.101C356.213 115.393 355.755 116.487 354.838 117.372C353.922 118.257 352.807 118.705 351.505 118.705Z" fill="#001649"/>
<path d="M414.167 119.205C405.86 119.205 399.375 116.841 394.709 112.101C390.042 107.367 387.709 100.705 387.709 92.1221C387.709 87.2783 388.589 82.8096 390.355 78.7262C392.131 74.6325 394.86 71.3252 398.542 68.8096C402.219 66.2835 406.75 65.0179 412.125 65.0179C417.167 65.0179 421.527 66.2002 425.209 68.5596C428.886 70.9085 431.678 74.0387 433.584 77.9554C435.5 81.8721 436.459 86.1533 436.459 90.7887C436.459 92.0804 436.027 93.1742 435.167 94.0596C434.318 94.9502 433.178 95.3929 431.75 95.3929H397.105C397.646 100.159 399.417 103.872 402.417 106.539C405.417 109.195 409.61 110.518 415 110.518C417.86 110.518 420.36 110.247 422.5 109.705C424.652 109.153 426.75 108.367 428.792 107.351C429.334 107.075 429.943 106.935 430.625 106.935C431.719 106.935 432.678 107.31 433.5 108.06C434.318 108.81 434.73 109.768 434.73 110.935C434.73 112.435 433.839 113.695 432.063 114.705C429.407 116.205 426.782 117.33 424.188 118.08C421.605 118.83 418.261 119.205 414.167 119.205ZM427.271 87.8304C427.063 84.4867 426.188 81.6846 424.646 79.4346C423.115 77.1846 421.23 75.5335 418.98 74.4762C416.73 73.4242 414.443 72.8929 412.125 72.8929C409.803 72.8929 407.521 73.4242 405.271 74.4762C403.032 75.5335 401.167 77.1846 399.667 79.4346C398.167 81.6846 397.313 84.4867 397.105 87.8304H427.271Z" fill="#001649"/>
<path d="M458.118 142.205C456.827 142.205 455.733 141.747 454.848 140.83C453.973 139.914 453.535 138.799 453.535 137.497V70.1429C453.535 68.8408 453.973 67.7471 454.848 66.8721C455.733 65.9867 456.827 65.5387 458.118 65.5387C459.42 65.5387 460.535 65.9867 461.452 66.8721C462.368 67.7471 462.827 68.8408 462.827 70.1429V72.7887C467.795 67.6117 473.624 65.0179 480.306 65.0179C484.54 65.0179 488.545 66.096 492.327 68.2471C496.103 70.4033 499.165 73.5387 501.514 77.6637C503.874 81.7783 505.056 86.596 505.056 92.1221C505.056 97.6377 503.874 102.455 501.514 106.58C499.165 110.705 496.103 113.846 492.327 115.997C488.545 118.138 484.54 119.205 480.306 119.205C473.624 119.205 467.795 116.617 462.827 111.435V137.497C462.827 138.872 462.379 139.997 461.493 140.872C460.618 141.758 459.493 142.205 458.118 142.205ZM478.973 110.518C484.025 110.518 488.082 108.924 491.139 105.726C494.207 102.518 495.743 97.9867 495.743 92.1221C495.743 86.2627 494.207 81.7262 491.139 78.5179C488.082 75.3096 484.025 73.7054 478.973 73.7054C475.848 73.7054 472.9 74.4085 470.139 75.8096C467.374 77.2158 464.936 79.07 462.827 81.3721V102.851C464.936 105.174 467.374 107.034 470.139 108.435C472.9 109.825 475.848 110.518 478.973 110.518Z" fill="#001649"/>
<path d="M545.839 119.205C540.589 119.205 535.985 118.08 532.026 115.83C528.078 113.58 525.031 110.393 522.88 106.268C520.74 102.143 519.672 97.4294 519.672 92.1221C519.672 86.8044 520.74 82.0804 522.88 77.9554C525.031 73.8304 528.078 70.6429 532.026 68.3929C535.985 66.1429 540.589 65.0179 545.839 65.0179C551.016 65.0179 555.578 66.1429 559.526 68.3929C563.485 70.6429 566.552 73.8304 568.735 77.9554C570.912 82.0804 572.005 86.8044 572.005 92.1221C572.005 97.4294 570.912 102.143 568.735 106.268C566.552 110.393 563.485 113.58 559.526 115.83C555.578 118.08 551.016 119.205 545.839 119.205ZM545.839 110.726C548.63 110.726 551.302 110.08 553.86 108.789C556.412 107.487 558.526 105.435 560.193 102.643C561.86 99.8512 562.693 96.3096 562.693 92.0179C562.693 87.7992 561.86 84.2887 560.193 81.4971C558.526 78.695 556.412 76.6637 553.86 75.4137C551.302 74.1533 548.63 73.5179 545.839 73.5179C542.974 73.5179 540.266 74.1533 537.714 75.4137C535.156 76.6637 533.057 78.695 531.422 81.4971C529.781 84.2887 528.964 87.7992 528.964 92.0179C528.964 96.3096 529.781 99.8512 531.422 102.643C533.057 105.435 535.156 107.487 537.714 108.789C540.266 110.08 542.974 110.726 545.839 110.726Z" fill="#001649"/>
</svg>
